<?xml version="1.0"?>
<svg xmlns="http://www.w3.org/2000/svg" id="Capa_1" enable-background="new 0 0 512 512" height="512px" viewBox="0 0 512 512" width="512px"><g><path d="m82.5 406.548h242c4.142 0 7.5-3.357 7.5-7.5v-30c0-4.143-3.358-7.5-7.5-7.5h-242c-4.142 0-7.5 3.357-7.5 7.5v30c0 4.142 3.358 7.5 7.5 7.5zm7.5-30h227v15h-227z" fill="#FFFFFF"/><path d="m429.5 406.548c4.142 0 7.5-3.357 7.5-7.5v-30c0-4.143-3.358-7.5-7.5-7.5h-75c-4.142 0-7.5 3.357-7.5 7.5v30c0 4.143 3.358 7.5 7.5 7.5zm-67.5-30h60v15h-60z" fill="#FFFFFF"/><path d="m459.5 211.548h-407c-20.711 0-37.5 16.789-37.5 37.5v90c0 4.142 3.358 7.5 7.5 7.5h459.5v127.952c0 12.426-10.074 22.5-22.5 22.5h-407c-12.426 0-22.5-10.074-22.5-22.5v-105.452c0-4.142-3.358-7.5-7.5-7.5s-7.5 3.358-7.5 7.5v105.452c0 20.711 16.789 37.5 37.5 37.5h407c20.711 0 37.5-16.789 37.5-37.5v-225.452c0-20.711-16.789-37.5-37.5-37.5zm-407 15h407c12.407 0 22.5 10.094 22.5 22.5v22.5h-452v-22.5c0-12.406 10.093-22.5 22.5-22.5zm-22.5 105v-45h452v45z" fill="#FFFFFF"/><path d="m82.5 436.548h121c4.142 0 7.5-3.357 7.5-7.5s-3.358-7.5-7.5-7.5h-121c-4.142 0-7.5 3.357-7.5 7.5s3.358 7.5 7.5 7.5z" fill="#FFFFFF"/><path d="m192.117 126.756-7.374 42.994c-1.458 8.503 1.972 16.935 8.951 22.006 6.979 5.069 16.058 5.726 23.695 1.713l38.611-20.299 38.61 20.299c3.321 1.746 6.915 2.608 10.491 2.608 4.646 0 9.261-1.456 13.205-4.321 6.979-5.071 10.409-13.504 8.951-22.007l-7.374-42.993 31.236-30.447c6.178-6.021 8.359-14.859 5.693-23.064s-9.626-14.073-18.164-15.313l-43.167-6.273-19.305-39.115c-3.818-7.738-11.549-12.544-20.176-12.544s-16.359 4.806-20.177 12.542l-19.305 39.116-43.167 6.272c-8.537 1.24-15.497 7.108-18.163 15.313s-.485 17.043 5.693 23.066zm-22.663-48.877c.902-2.776 3.166-4.685 6.055-5.104l47.069-6.839c2.442-.354 4.554-1.889 5.647-4.103l21.05-42.652c1.291-2.618 3.806-4.181 6.725-4.181s5.433 1.563 6.725 4.181l21.05 42.651c1.093 2.214 3.204 3.748 5.647 4.103l47.069 6.84c2.889.42 5.153 2.328 6.055 5.104.902 2.777.193 5.651-1.897 7.688l-34.06 33.199c-1.768 1.724-2.574 4.206-2.157 6.639l8.04 46.879c.494 2.878-.622 5.62-2.983 7.336-2.362 1.717-5.315 1.93-7.898.571l-42.1-22.134c-1.093-.574-2.292-.861-3.49-.861s-2.397.287-3.49.861l-42.1 22.134c-2.584 1.357-5.537 1.146-7.898-.571-2.362-1.716-3.478-4.458-2.984-7.335l8.04-46.88c.417-2.433-.389-4.915-2.157-6.639l-34.059-33.198c-2.092-2.038-2.801-4.913-1.899-7.689z" fill="#FFFFFF"/></g></svg>
