<?xml version="1.0"?>
<svg xmlns="http://www.w3.org/2000/svg" height="512px" viewBox="0 0 598 598.75443" width="512px"><path d="m449.441406 99.792969h19.960938v19.957031h-19.960938zm0 0" fill="#FFFFFF"/><path d="m409.527344 99.792969h19.957031v19.957031h-19.957031zm0 0" fill="#FFFFFF"/><path d="m369.609375 99.792969h19.957031v19.957031h-19.957031zm0 0" fill="#FFFFFF"/><path d="m130.105469 99.792969h19.960937v19.957031h-19.960937zm0 0" fill="#FFFFFF"/><path d="m319.714844 548.859375h-39.917969c-5.511719 0-9.980469 4.460937-9.980469 9.976563 0 5.511718 4.46875 9.980468 9.980469 9.980468h39.917969c5.507812 0 9.976562-4.46875 9.976562-9.980468 0-5.515626-4.46875-9.976563-9.976562-9.976563zm0 0" fill="#FFFFFF"/><path d="m558.824219 381.953125 39.917969-139.707031c.863281-3.011719.257812-6.253906-1.621094-8.753906-1.886719-2.5-4.835938-3.96875-7.96875-3.96875h-79.832032v-179.628907c-.035156-27.542969-22.351562-49.8671872-49.898437-49.894531h-319.335937c-27.542969.0273438-49.863282 22.351562-49.894532 49.894531v169.648438h19.957032v-139.710938h379.210937v149.691407h-129.730469v-29.9375c0-5.515626-4.46875-9.980469-9.976562-9.980469h-49.898438v19.957031h39.917969v29.9375h.257813c-.09375.917969-.046876 1.839844.132812 2.746094l39.914062 139.707031c0 .136719.128907.25.183594.390625-13.984375 15.097656-14.226562 38.339844-.550781 53.71875 13.671875 15.375 36.789063 17.855469 53.414063 5.734375 16.625-12.125 21.332031-34.890625 10.871093-52.605469h41.035157c-8.800782 14.664063-7 33.355469 4.429687 46.078125v83.652344h-379.210937v-139.710937h-19.957032v169.648437c.03125 27.539063 22.351563 49.859375 49.894532 49.894531h319.335937c27.546875-.035156 49.863281-22.355468 49.898437-49.894531v-101.210937c3.25.894531 6.605469 1.375 9.976563 1.417968 22.042969 0 39.917969-17.875 39.917969-39.917968-.03125-7.386719-2.125-14.613282-6.046875-20.871094 2.738281-1.152344 4.8125-3.472656 5.65625-6.324219zm-448.675781-322.078125v-9.980469c0-16.535156 13.40625-29.9375 29.9375-29.9375h319.335937c16.535156 0 29.9375 13.402344 29.9375 29.9375v9.980469zm252.738281 189.605469h213.03125l-34.207031 119.75h-144.621094zm66.597656 159.667969c0 11.023437-8.9375 19.957031-19.957031 19.957031-11.023438 0-19.960938-8.933594-19.960938-19.957031 0-11.027344 8.9375-19.957032 19.960938-19.957032 11.019531 0 19.957031 8.929688 19.957031 19.957032zm29.9375 169.648437h-319.335937c-16.53125 0-29.9375-13.40625-29.9375-29.9375v-9.980469h379.210937v9.980469c0 16.53125-13.402344 29.9375-29.9375 29.9375zm59.875-149.691406c-11.019531 0-19.957031-8.933594-19.957031-19.957031 0-11.027344 8.9375-19.957032 19.957031-19.957032 11.023437 0 19.960937 8.929688 19.960937 19.957032 0 11.023437-8.9375 19.957031-19.960937 19.957031zm0 0" fill="#FFFFFF"/><path d="m459.421875 269.441406h19.957031v39.914063h-19.957031zm0 0" fill="#FFFFFF"/><path d="m419.503906 269.441406h19.960938v39.914063h-19.960938zm0 0" fill="#FFFFFF"/><path d="m499.339844 269.441406h19.957031v39.914063h-19.957031zm0 0" fill="#FFFFFF"/><path d="m.378906 229.523438h39.914063v19.957031h-39.914063zm0 0" fill="#FFFFFF"/><path d="m60.253906 229.523438h159.667969v19.957031h-159.667969zm0 0" fill="#FFFFFF"/><path d="m.378906 269.441406h59.875v19.957032h-59.875zm0 0" fill="#FFFFFF"/><path d="m80.210938 269.441406h159.667968v19.957032h-159.667968zm0 0" fill="#FFFFFF"/><path d="m.378906 309.355469h79.832032v19.960937h-79.832032zm0 0" fill="#FFFFFF"/><path d="m100.167969 309.355469h159.667969v19.960937h-159.667969zm0 0" fill="#FFFFFF"/><path d="m.378906 349.273438h99.789063v19.957031h-99.789063zm0 0" fill="#FFFFFF"/><path d="m120.128906 349.273438h159.667969v19.957031h-159.667969zm0 0" fill="#FFFFFF"/></svg>
