<?xml version="1.0"?>
<svg xmlns="http://www.w3.org/2000/svg" id="Capa_1" enable-background="new 0 0 512 512" height="512px" viewBox="0 0 512 512" width="512px"><g><path d="m413.5 0h-315c-4.143 0-7.5 3.358-7.5 7.5v150c0 4.142 3.357 7.5 7.5 7.5s7.5-3.358 7.5-7.5v-142.5h300v482h-15v-459.5c0-4.142-3.357-7.5-7.5-7.5h-255c-4.143 0-7.5 3.358-7.5 7.5v459.5h-15v-309.5c0-4.142-3.357-7.5-7.5-7.5s-7.5 3.358-7.5 7.5v317c0 4.142 3.357 7.5 7.5 7.5h315c4.143 0 7.5-3.358 7.5-7.5v-497c0-4.142-3.357-7.5-7.5-7.5zm-37.5 45v362h-240v-362zm-240 377h240v75h-240z" fill="#FFFFFF"/><path d="m316 309.5c0 12.407 10.094 22.5 22.5 22.5s22.5-10.093 22.5-22.5-10.094-22.5-22.5-22.5-22.5 10.093-22.5 22.5zm22.5-7.5c4.136 0 7.5 3.364 7.5 7.5s-3.364 7.5-7.5 7.5-7.5-3.364-7.5-7.5 3.364-7.5 7.5-7.5z" fill="#FFFFFF"/><path d="m203.293 189.626-4.735 27.611c-1.459 8.503 1.97 16.935 8.949 22.006 3.944 2.866 8.559 4.322 13.205 4.322 3.575 0 7.17-.863 10.491-2.608l24.797-13.037 24.797 13.037c7.636 4.015 16.716 3.358 23.696-1.713 6.979-5.071 10.408-13.503 8.949-22.005l-4.735-27.612 20.062-19.555c6.178-6.022 8.359-14.86 5.693-23.065s-9.625-14.073-18.163-15.313l-27.724-4.029-12.398-25.122c-3.819-7.737-11.549-12.543-20.177-12.543s-16.358 4.806-20.177 12.542l-12.398 25.122-27.724 4.029c-8.538 1.24-15.497 7.108-18.163 15.313s-.484 17.043 5.693 23.065zm-11.489-37.985c.902-2.776 3.165-4.685 6.054-5.104l31.626-4.596c2.443-.355 4.555-1.889 5.647-4.103l14.144-28.658c1.291-2.617 3.805-4.18 6.725-4.18s5.434 1.563 6.726 4.181l14.144 28.658c1.093 2.213 3.204 3.748 5.647 4.103l31.626 4.596c2.889.42 5.151 2.328 6.054 5.104s.192 5.65-1.898 7.688l-22.885 22.307c-1.768 1.723-2.574 4.206-2.156 6.639l5.402 31.499c.493 2.876-.622 5.619-2.983 7.334-2.36 1.715-5.314 1.93-7.898.571l-28.287-14.871c-2.186-1.148-4.795-1.148-6.98 0l-28.287 14.871c-2.582 1.358-5.536 1.146-7.898-.571-2.361-1.716-3.477-4.458-2.983-7.335l5.402-31.498c.418-2.433-.389-4.916-2.156-6.639l-22.885-22.307c-2.094-2.038-2.804-4.913-1.901-7.689z" fill="#FFFFFF"/></g></svg>
