<?xml version="1.0"?>
<svg xmlns="http://www.w3.org/2000/svg" height="512px" viewBox="0 -28 480 480" width="512px"><path d="m223.3125 37.3125c-17.222656 3.230469-33.046875 11.660156-45.335938 24.152344l-15 14.992187c-7.039062-5.410156-16.484374-6.507812-24.578124-2.855469l-41.597657 18.910157c-4.777343 2.171875-8.1875 6.546875-9.125 11.710937-.9375 5.164063.71875 10.457032 4.429688 14.167969l20.117187 20.121094c1.5 1.5 3.535156 2.34375 5.65625 2.34375.859375.003906 1.714844-.132813 2.527344-.40625l8.800781-2.945313-5.445312 10.976563c-6.4375-.066407-12.628907 2.457031-17.1875 7-6.582031 6.589843-22.980469 33.597656-11.308594 45.253906 2.980469 2.8125 6.984375 4.289063 11.078125 4.089844 12.71875-1.445313 24.667969-6.828125 34.175781-15.398438 4.550781-4.554687 7.074219-10.75 7-17.1875l10.984375-5.484375-2.945312 8.796875c-.953125 2.875-.207032 6.042969 1.9375 8.183594l20.105468 20.152344c3 3.003906 7.066407 4.6875 11.308594 4.6875.960938 0 1.914063-.085938 2.859375-.253907 5.164063-.933593 9.542969-4.339843 11.71875-9.121093l18.910157-41.597657c3.625-8.089843 2.523437-17.511718-2.871094-24.546874l14.992187-15c12.492188-12.289063 20.921875-28.109376 24.152344-45.335938 2.625-14.398438.976563-24.34375-5.03125-30.34375s-15.921875-7.679688-30.328125-5.0625zm-103.265625 86.398438-16.613281-16.621094 41.597656-18.914063c2-.886719 4.273438-.910156 6.289062-.0625l-27.785156 27.78125c-1.886718 1.933594-2.652344 4.703125-2.023437 7.328125zm9.160156 54.402343c-6.355469 5.414063-13.972656 9.140625-22.152343 10.832031 1.691406-8.175781 5.417968-15.792968 10.832031-22.144531 3.125-3.125 8.191406-3.128906 11.316406-.003906 3.125 3.121094 3.128906 8.1875.003906 11.316406zm11.3125-22.632812-1.550781-1.550781 3.765625-7.546876 6.929687 6.929688-7.542968 3.765625zm67.328125-4.527344-18.917968 41.597656-16.625-16.621093.488281-1.480469c.542969.164062 1.105469.269531 1.671875.320312 2.121094-.003906 4.15625-.84375 5.65625-2.34375l27.773437-27.777343c.847657 2.019531.832031 4.296874-.046875 6.304687zm35.097656-81.128906c-2.660156 14.023437-9.550781 26.898437-19.746093 36.886719l-48.757813 48.800781-11.320312-11.3125 33.941406-33.941407-11.308594-11.3125-33.945312 33.941407-11.3125-11.320313 48.800781-48.757812c9.992187-10.183594 22.859375-17.066406 36.878906-19.71875 10.398438-1.90625 15.0625-.523438 16.175781.597656 1.113282 1.121094 2.449219 5.746094.59375 16.136719zm0 0" fill="#FFFFFF"/><path d="m222.246094 68.695312-16.964844-5.65625-5.066406 15.199219 13.175781 4.394531 4.394531 13.175782 15.199219-5.066406-5.65625-16.964844c-.796875-2.402344-2.679687-4.285156-5.082031-5.082032zm0 0" fill="#FFFFFF"/><path d="m352 200v-160c-.027344-22.082031-17.917969-39.9726562-40-40h-272c-22.082031.0273438-39.9726562 17.917969-40 40v160c.0273438 22.082031 17.917969 39.972656 40 40h35.878906l37.601563 52.648438c2.019531 2.839843 5.640625 4.046874 8.957031 2.984374 3.320312-1.0625 5.566406-4.148437 5.5625-7.632812v-48h184c22.082031-.027344 39.972656-17.917969 40-40zm-232 24c-4.417969 0-8 3.582031-8 8v31.03125l-25.488281-35.679688c-1.5-2.101562-3.925781-3.351562-6.511719-3.351562h-40c-13.253906 0-24-10.746094-24-24v-160c0-13.253906 10.746094-24 24-24h272c13.253906 0 24 10.746094 24 24v160c0 13.253906-10.746094 24-24 24zm0 0" fill="#FFFFFF"/><path d="m440 152h-72v16h72c13.253906 0 24 10.746094 24 24v144c0 13.253906-10.746094 24-24 24h-72c-2.375 0-4.625 1.054688-6.144531 2.878906l-25.855469 31.023438v-25.902344c0-4.417969-3.582031-8-8-8h-144c-13.253906 0-24-10.746094-24-24v-80h-16v80c.027344 22.082031 17.917969 39.972656 40 40h136v40c0 3.367188 2.109375 6.371094 5.277344 7.519531 3.164062 1.144531 6.710937.1875 8.867187-2.398437l37.597657-45.121094h68.257812c22.082031-.027344 39.972656-17.917969 40-40v-144c-.027344-22.082031-17.917969-39.972656-40-40zm0 0" fill="#FFFFFF"/><path d="m200 256h224v16h-224zm0 0" fill="#FFFFFF"/><path d="m200 304h224v16h-224zm0 0" fill="#FFFFFF"/><path d="m376 208h48v16h-48zm0 0" fill="#FFFFFF"/></svg>
