<?xml version="1.0" encoding="iso-8859-1"?><svg xmlns="http://www.w3.org/2000/svg" xmlns:xlink="http://www.w3.org/1999/xlink" version="1.1" id="Capa_1" x="0px" y="0px" viewBox="0 0 512 512" style="enable-background:new 0 0 512 512;" xml:space="preserve"><g><g><path d="M428.337,56.11h-57.069C367.536,24.558,340.64,0,308.102,0s-59.434,24.558-63.165,56.11H83.663    c-4.15,0-7.515,3.365-7.515,7.515v440.861c0,4.15,3.365,7.515,7.515,7.515h344.673c4.15,0,7.515-3.365,7.515-7.515V63.624    C435.851,59.474,432.487,56.11,428.337,56.11z M259.507,63.624c0-26.795,21.8-48.595,48.595-48.595s48.595,21.8,48.595,48.595    v343.726c-11.68-13.814-29.131-22.599-48.595-22.599c-19.464,0-36.915,8.785-48.595,22.599V63.624z M91.178,71.139h153.299v17.033    h-112.72c-4.15,0-7.515,3.365-7.515,7.515v40.078c0,4.15,3.365,7.515,7.515,7.515h112.72v17.033H91.178V71.139z M244.477,103.202    v25.049H139.272v-25.049H244.477z M308.102,496.971H91.178V175.342h153.299v33.127l-34.361,47.246l-24.559-28.653    c-2.953-3.446-8.459-3.446-11.411,0l-48.094,56.11c-4.099,4.781-0.578,12.405,5.705,12.405h112.72v25.049h-112.72    c-4.15,0-7.515,3.365-7.515,7.515c0,4.15,3.365,7.515,7.515,7.515h112.72v25.049h-32.564c-4.15,0-7.515,3.365-7.515,7.515    s3.365,7.515,7.515,7.515h32.564v25.049h-56.611c-4.15,0-7.515,3.365-7.515,7.515c0,4.15,3.365,7.515,7.515,7.515h56.611v32.564    c0,4.15,3.365,7.515,7.515,7.515c4.15,0,7.515-3.365,7.515-7.515c0-26.795,21.8-48.595,48.595-48.595s48.595,21.8,48.595,48.595    S334.897,496.971,308.102,496.971z M244.477,234.02v46.528h-13.077l-11.232-13.104L244.477,234.02z M211.606,280.548h-63.511    L179.85,243.5L211.606,280.548z M420.822,496.971h-17.033V197.886c0-4.15-3.365-7.515-7.515-7.515    c-4.15,0-7.515,3.365-7.515,7.515v299.084h-39.653c13.821-11.68,22.62-29.125,22.62-48.595V71.139h17.033v91.345    c0,4.15,3.365,7.515,7.515,7.515c4.15,0,7.515-3.365,7.515-7.515V71.139h17.033V496.971z" fill="#FFFFFF"/></g></g><g><g><path d="M180.352,360.704h-48.595c-4.15,0-7.515,3.365-7.515,7.515s3.365,7.515,7.515,7.515h48.595    c4.15,0,7.515-3.365,7.515-7.515S184.502,360.704,180.352,360.704z" fill="#FFFFFF"/></g></g><g><g><path d="M156.305,400.783h-24.548c-4.15,0-7.515,3.365-7.515,7.515c0,4.15,3.365,7.515,7.515,7.515h24.548    c4.15,0,7.515-3.365,7.515-7.515C163.82,404.147,160.455,400.783,156.305,400.783z" fill="#FFFFFF"/></g></g><g></g><g></g><g></g><g></g><g></g><g></g><g></g><g></g><g></g><g></g><g></g><g></g><g></g><g></g><g></g></svg>