<?xml version="1.0"?>
<svg xmlns="http://www.w3.org/2000/svg" width="512px" height="512px" viewBox="0 0 512 512"><g><path d="M472,8H232a32.036,32.036,0,0,0-32,32V64H136a8,8,0,0,0-8,8V192a7.983,7.983,0,0,0,.069,1A32.057,32.057,0,0,0,104,224v24H40a8,8,0,0,0-8,8V376a7.983,7.983,0,0,0,.069,1A32.057,32.057,0,0,0,8,408v64a32.036,32.036,0,0,0,32,32H280a32.036,32.036,0,0,0,32-32V408a32.036,32.036,0,0,0-32-32H48V264h56v24a32.036,32.036,0,0,0,32,32H376a32.036,32.036,0,0,0,32-32V224a32.036,32.036,0,0,0-32-32H144V80h56v24a32.036,32.036,0,0,0,32,32H472a32.036,32.036,0,0,0,32-32V40A32.036,32.036,0,0,0,472,8ZM280,392a16.019,16.019,0,0,1,16,16v64a16.019,16.019,0,0,1-16,16H40a16.019,16.019,0,0,1-16-16V408a16.019,16.019,0,0,1,16-16Zm96-184a16.019,16.019,0,0,1,16,16v64a16.019,16.019,0,0,1-16,16H136a16.019,16.019,0,0,1-16-16V224a16.019,16.019,0,0,1,16-16ZM488,104a16.019,16.019,0,0,1-16,16H232a16.019,16.019,0,0,1-16-16V40a16.019,16.019,0,0,1,16-16H472a16.019,16.019,0,0,1,16,16Z" fill="#FFFFFF"/><path d="M488,344H456a8,8,0,0,0-8,8V488h-8V384a8,8,0,0,0-8-8H400a8,8,0,0,0-8,8V488h-8V416a8,8,0,0,0-8-8H344a8,8,0,0,0-8,8v72h-8a8,8,0,0,0,0,16H488a8,8,0,0,0,8-8V352A8,8,0,0,0,488,344ZM368,488H352V424h16Zm56,0H408V392h16Zm56,0H464V360h16Z" fill="#FFFFFF"/><path d="M482.343,290.343,472,300.686V192a8,8,0,0,0-16,0V300.686l-10.343-10.343a8,8,0,0,0-11.314,11.314l24,24a8,8,0,0,0,11.314,0l24-24a8,8,0,0,0-11.314-11.314Z" fill="#FFFFFF"/><path d="M464,176a8,8,0,0,0,8-8v-8a8,8,0,0,0-16,0v8A8,8,0,0,0,464,176Z" fill="#FFFFFF"/><path d="M16,136H96a8,8,0,0,0,0-16H16a8,8,0,0,0,0,16Z" fill="#FFFFFF"/><path d="M16,160H48a8,8,0,0,0,0-16H16a8,8,0,0,0,0,16Z" fill="#FFFFFF"/><path d="M72,144a8,8,0,0,0,0,16h8a8,8,0,0,0,0-16Z" fill="#FFFFFF"/><path d="M264,40H232a8,8,0,0,0-8,8V72a8,8,0,0,0,8,8h32a8,8,0,0,0,8-8V48A8,8,0,0,0,264,40Zm-8,24H240V56h16Z" fill="#FFFFFF"/><path d="M472,40H288a8,8,0,0,0,0,16H472a8,8,0,0,0,0-16Z" fill="#FFFFFF"/><path d="M472,64H288a8,8,0,0,0,0,16H472a8,8,0,0,0,0-16Z" fill="#FFFFFF"/><path d="M376,88H288a8,8,0,0,0,0,16h88a8,8,0,0,0,0-16Z" fill="#FFFFFF"/><path d="M408,88h-8a8,8,0,0,0,0,16h8a8,8,0,0,0,0-16Z" fill="#FFFFFF"/><path d="M32,416v24a8,8,0,0,0,8,8H72a8,8,0,0,0,8-8V416a8,8,0,0,0-8-8H40A8,8,0,0,0,32,416Zm16,8H64v8H48Z" fill="#FFFFFF"/><path d="M96,424H280a8,8,0,0,0,0-16H96a8,8,0,0,0,0,16Z" fill="#FFFFFF"/><path d="M96,448H280a8,8,0,0,0,0-16H96a8,8,0,0,0,0,16Z" fill="#FFFFFF"/><path d="M96,472h88a8,8,0,0,0,0-16H96a8,8,0,0,0,0,16Z" fill="#FFFFFF"/><path d="M216,456h-8a8,8,0,0,0,0,16h8a8,8,0,0,0,0-16Z" fill="#FFFFFF"/><path d="M128,232v24a8,8,0,0,0,8,8h32a8,8,0,0,0,8-8V232a8,8,0,0,0-8-8H136A8,8,0,0,0,128,232Zm16,8h16v8H144Z" fill="#FFFFFF"/><path d="M192,240H376a8,8,0,0,0,0-16H192a8,8,0,0,0,0,16Z" fill="#FFFFFF"/><path d="M192,264H376a8,8,0,0,0,0-16H192a8,8,0,0,0,0,16Z" fill="#FFFFFF"/><path d="M192,288h88a8,8,0,0,0,0-16H192a8,8,0,0,0,0,16Z" fill="#FFFFFF"/><path d="M312,272h-8a8,8,0,0,0,0,16h8a8,8,0,0,0,0-16Z" fill="#FFFFFF"/><path d="M60,8a52,52,0,1,0,52,52A52.063,52.063,0,0,0,60,8Zm0,16a35.735,35.735,0,0,1,16.61,4.08L56.69,48H26.06A36.068,36.068,0,0,1,60,24Zm0,72A36.042,36.042,0,0,1,24.23,64h28.7L64.17,95.75A35.914,35.914,0,0,1,60,96Zm19.25-5.6L68.18,59.13,88.84,38.48A35.946,35.946,0,0,1,79.25,90.4Z" fill="#FFFFFF"/></g></svg>
