<svg id="Слой_1" data-name="Слой 1" xmlns="http://www.w3.org/2000/svg" xmlns:xlink="http://www.w3.org/1999/xlink" viewBox="0 0 451.56 295.94"><defs><style>.cls-1{fill:url(#Безымянный_градиент_3);}.cls-2{fill:url(#Безымянный_градиент_3-2);}.cls-3{fill:url(#Безымянный_градиент_3-3);}.cls-4{fill:url(#Безымянный_градиент_3-4);}.cls-5{fill:#fff;}</style><linearGradient id="Безымянный_градиент_3" x1="-46.03" y1="64.12" x2="431.97" y2="287.12" gradientUnits="userSpaceOnUse"><stop offset="0" stop-color="#ffdb45"/><stop offset="0.06" stop-color="#ffd448"/><stop offset="0.16" stop-color="#ffbf50"/><stop offset="0.27" stop-color="#ff9e5d"/><stop offset="0.4" stop-color="#ff706e"/><stop offset="0.47" stop-color="#ff5479"/><stop offset="0.55" stop-color="#f84f80"/><stop offset="0.66" stop-color="#e34192"/><stop offset="0.8" stop-color="#c22aaf"/><stop offset="0.95" stop-color="#940ad8"/><stop offset="1" stop-color="#8500e5"/></linearGradient><linearGradient id="Безымянный_градиент_3-2" x1="-32.17" y1="34.41" x2="445.83" y2="257.41" xlink:href="#Безымянный_градиент_3"/><linearGradient id="Безымянный_градиент_3-3" x1="16.28" y1="-69.45" x2="494.28" y2="153.55" xlink:href="#Безымянный_градиент_3"/><linearGradient id="Безымянный_градиент_3-4" x1="-9.99" y1="-13.13" x2="468.01" y2="209.87" xlink:href="#Безымянный_градиент_3"/></defs><title>Logo WAMP</title><polygon class="cls-1" points="217.98 178.03 209.69 214.59 273.39 214.59 264.95 178.03 217.98 178.03"/><polygon class="cls-2" points="161.3 70.03 142.31 0 97.88 0 79.73 70.03 63.42 0 0 0 51.61 214.59 99.14 214.59 120.66 129.66 143.72 214.59 144.36 214.59 196.54 0 177.47 0 161.3 70.03"/><polygon class="cls-3" points="388.56 0 362.27 44.72 336.11 0 288.65 0 338.08 214.31 338.08 107.16 362.27 148.64 387.02 107.16 387.02 214.59 451.56 214.59 451.56 0 388.56 0"/><polygon class="cls-4" points="241.68 75.23 229.58 127.69 253.49 127.69 241.68 75.23"/><path class="cls-5" d="M413.83,512.85a5.2,5.2,0,0,1-1.92,4.34,8.72,8.72,0,0,1-5.5,1.52h-2.18V526h-2.16V507.44h4.81Q413.83,507.44,413.83,512.85Zm-9.61,4h1.94a7.22,7.22,0,0,0,4.15-.93,3.41,3.41,0,0,0,1.28-3,3.2,3.2,0,0,0-1.21-2.74,6.3,6.3,0,0,0-3.76-.9h-2.41Z" transform="translate(-398.61 -234.94)"/><path class="cls-5" d="M477.07,518.28V526h-2.16V507.44H480a8,8,0,0,1,5,1.31,4.74,4.74,0,0,1,1.63,3.94,4.93,4.93,0,0,1-3.73,5l5,8.34h-2.55l-4.49-7.72Zm0-1.85h3a5.11,5.11,0,0,0,3.35-.91,3.37,3.37,0,0,0,1.07-2.72,3.1,3.1,0,0,0-1.09-2.65,5.88,5.88,0,0,0-3.48-.81h-2.81Z" transform="translate(-398.61 -234.94)"/><path class="cls-5" d="M564.3,516.69a10.22,10.22,0,0,1-2.25,7,7.92,7.92,0,0,1-6.27,2.55,8,8,0,0,1-6.33-2.51q-2.23-2.51-2.23-7.08t2.23-7a8.08,8.08,0,0,1,6.35-2.5,7.91,7.91,0,0,1,6.25,2.54A10.21,10.21,0,0,1,564.3,516.69Zm-14.79,0a8.81,8.81,0,0,0,1.61,5.72,6.56,6.56,0,0,0,9.32,0,11.14,11.14,0,0,0,0-11.41,5.62,5.62,0,0,0-4.64-1.94,5.73,5.73,0,0,0-4.69,1.95A8.72,8.72,0,0,0,549.51,516.69Z" transform="translate(-398.61 -234.94)"/><path class="cls-5" d="M622.93,530.89a4.26,4.26,0,0,1-1.88-.34V528.7a6.91,6.91,0,0,0,1.88.25,2.38,2.38,0,0,0,1.91-.76,3.28,3.28,0,0,0,.65-2.2V507.44h2.16v18.38a5.32,5.32,0,0,1-1.22,3.74A4.52,4.52,0,0,1,622.93,530.89Z" transform="translate(-398.61 -234.94)"/><path class="cls-5" d="M700.13,526H689.78V507.44h10.35v1.92h-8.19v6h7.69v1.9h-7.69v6.83h8.19Z" transform="translate(-398.61 -234.94)"/><path class="cls-5" d="M769.39,509.1a6.07,6.07,0,0,0-4.83,2,8.22,8.22,0,0,0-1.77,5.58,8.38,8.38,0,0,0,1.71,5.63,6.07,6.07,0,0,0,4.87,2,16.65,16.65,0,0,0,4.43-.7v1.89a13.65,13.65,0,0,1-4.76.72,8.06,8.06,0,0,1-6.33-2.49q-2.23-2.49-2.23-7.07a11.15,11.15,0,0,1,1.07-5,7.7,7.7,0,0,1,3.1-3.33,9.38,9.38,0,0,1,4.77-1.17,11.5,11.5,0,0,1,5.1,1.07l-.91,1.85A9.84,9.84,0,0,0,769.39,509.1Z" transform="translate(-398.61 -234.94)"/><path class="cls-5" d="M840.76,526H838.6V509.36h-5.88v-1.92h13.91v1.92h-5.88Z" transform="translate(-398.61 -234.94)"/></svg>